<svg xmlns="http://www.w3.org/2000/svg" viewBox="0 0 64 64">
  <rect width="64" height="64" rx="16" fill="#14463f"/>
  <!-- スピード線（イソゲ＝急ぐ） -->
  <g stroke="#f1851f" stroke-width="4" stroke-linecap="round">
    <line x1="8" y1="24" x2="22" y2="24"/>
    <line x1="6" y1="33" x2="20" y2="33"/>
    <line x1="9" y1="42" x2="22" y2="42"/>
  </g>
  <!-- 受話器 -->
  <path d="M30 22c0 12 8 20 20 20 2.4 0 3.6-1.4 3.6-3.2 0-1.3-2.6-3-4.9-4.3-1.7-1-3-.8-4.2.4l-1.3 1.3c-3-1.6-5.6-4.2-7.2-7.2l1.3-1.3c1.2-1.2 1.4-2.5.4-4.2-1.3-2.3-3-4.9-4.3-4.9-1.8 0-3.2 1.2-3.2 3.6z" fill="#ffffff"/>
</svg>
